<?xml version="1.0" encoding="UTF-8"?>
<svg id="Layer_1" xmlns="http://www.w3.org/2000/svg" version="1.1" xmlns:xlink="http://www.w3.org/1999/xlink" viewBox="0 0 1024 1024">
  <defs>
    <style>
      .st0 {
        fill: #001d59;
      }

      .st1 {
        fill: #00613a;
      }

      .st2 {
        fill: none;
      }

      .st3 {
        clip-path: url(#clippath-1);
      }

      .st4 {
        clip-path: url(#clippath);
      }
    </style>
    <clipPath id="clippath">
      <polygon class="st2" points="470.455 953.591 706.364 60.409 1260 64.5 1260 946.773 470.455 953.591"/>
    </clipPath>
    <clipPath id="clippath-1">
      <polygon class="st2" points="470.455 953.591 706.364 60.409 -75 64.5 -75 946.773 470.455 953.591"/>
    </clipPath>
  </defs>
  <g class="st4">
    <path class="st1" d="M420.233,117.534h594v209h-85v-124h-165v629h126v85h-347v-85h126V202.534h-164v124h-85V117.534Z"/>
  </g>
  <g class="st3">
    <path class="st0" d="M6.893,109.485c24.109,0,43.797.203,59.078.609s28.547.797,39.797,1.203,21.703.797,31.359,1.203,20.906.594,33.781.594,27.938-.188,45.219-.594,34.578-1,51.859-1.812c17.281-.797,33.766-1.359,49.453-1.703,15.672-.328,28.328-.5,37.984-.5,35.375,0,70.75,2.828,106.125,8.453s67.328,15.875,95.875,30.75c28.531,14.875,51.656,34.766,69.344,59.688,17.688,24.938,26.531,56.688,26.531,95.281,0,25.734-5.438,48.844-16.281,69.344-10.859,20.5-25.125,38.391-42.812,53.672s-38.391,27.938-62.109,37.984c-23.719,10.062-48.031,17.094-72.953,21.109v2.406c24.922,1.609,52.062,6.625,81.406,15.062s56.469,21.094,81.391,37.953c24.922,16.875,45.828,38.156,62.719,63.859,16.875,25.703,25.328,56.219,25.328,91.547,0,39.375-7.641,73.109-22.922,101.219s-36.578,51.203-63.906,69.266c-27.344,18.078-60.109,31.328-98.297,39.766s-80.609,12.641-127.234,12.641c-29.75,0-64.312-.938-103.703-2.812-39.406-1.875-75.578-2.812-108.547-2.812-14.469,0-27.344.203-38.594.609s-23.109.812-35.578,1.219-26.938.797-43.422,1.203-36.781.594-60.891.594v-21.719c12.859,0,25.125-1,36.781-3.016,11.656-2,21.906-5.828,30.75-11.453s15.875-13.453,21.109-23.516c5.219-10.062,7.844-23.531,7.844-40.422V209.61c0-16.875-2.625-30.344-7.844-40.406-5.234-10.062-12.266-17.906-21.109-23.531s-19.094-9.438-30.75-11.453c-11.656-2-23.922-3.016-36.781-3.016v-21.719ZM274.627,477.485h63.906c28.141,0,51.453-5.016,69.953-15.062,18.484-10.031,33.156-23.297,44.016-39.766,10.844-16.469,18.281-34.938,22.312-55.422,4.016-20.484,6.031-41.578,6.031-63.281s-2.812-42.359-8.438-62.047-14.672-36.75-27.141-51.219c-12.469-14.453-28.141-26.094-47.031-34.938-18.906-8.844-41.609-13.266-68.141-13.266-15.281,0-28.344,1.812-39.188,5.422-10.859,3.625-16.281,15.062-16.281,34.344v295.234ZM274.627,759.345c0,20.859,1,38.906,3.016,54.156,2,15.25,6.828,28.281,14.469,39.109,7.625,10.828,18.891,18.844,33.766,24.062s35.172,7.812,60.906,7.812c24.109,0,45.016-4.609,62.703-13.828s32.359-21.656,44.016-37.297,20.312-33.891,25.938-54.75,8.438-43.328,8.438-67.391c0-67.375-14.281-117.5-42.812-150.391-28.547-32.891-73.375-49.344-134.469-49.344h-75.969v247.859Z"/>
  </g>
</svg>